<?xml version="1.0" standalone="no"?>
<!DOCTYPE svg PUBLIC "-//W3C//DTD SVG 20010904//EN"
 "http://www.w3.org/TR/2001/REC-SVG-20010904/DTD/svg10.dtd">
<svg version="1.0" xmlns="http://www.w3.org/2000/svg"
 width="200.000000pt" height="200.000000pt" viewBox="0 0 200.000000 200.000000"
 preserveAspectRatio="xMidYMid meet">
<metadata>
Created by potrace 1.14, written by Peter Selinger 2001-2017
</metadata>
<g transform="translate(0.000000,200.000000) scale(0.100000,-0.100000)"
fill="#000000" stroke="none">
<path d="M750 1723 c-93 -54 -96 -58 -141 -137 -26 -44 -45 -82 -44 -84 1 -1
69 36 149 82 141 82 149 85 174 72 15 -8 85 -48 155 -90 71 -42 133 -76 138
-76 5 0 9 24 9 53 l0 53 -159 92 c-88 51 -166 92 -173 91 -7 0 -56 -26 -108
-56z"/>
<path d="M955 1767 c11 -8 63 -38 115 -67 52 -29 107 -62 123 -72 l27 -19 0
-181 c0 -99 3 -178 8 -176 4 2 24 12 45 23 l37 19 0 187 0 186 -100 57 -101
56 -87 0 c-75 0 -84 -2 -67 -13z"/>
<path d="M708 1537 l-158 -92 0 -119 0 -119 43 -76 42 -76 3 170 3 170 154 90
c85 49 155 92 155 95 0 5 -75 50 -82 50 -2 0 -74 -42 -160 -93z"/>
<path d="M1340 1440 l0 -175 -138 -81 c-75 -45 -147 -87 -160 -93 -28 -15 -22
-26 30 -52 l40 -20 112 64 c61 36 134 78 161 94 l50 29 3 117 3 116 -51 88
-50 88 0 -175z"/>
<path d="M715 1407 l-40 -23 0 -194 0 -194 94 -53 95 -54 95 3 96 3 -142 80
-143 80 0 187 c0 104 -3 188 -7 188 -5 0 -26 -11 -48 -23z"/>
<path d="M800 1118 l0 -53 157 -90 c86 -49 161 -89 167 -87 6 2 52 27 103 55
87 49 94 56 132 123 23 40 41 74 41 77 0 3 -61 -30 -136 -74 -75 -43 -141 -79
-146 -79 -8 0 -150 81 -285 162 l-33 20 0 -54z"/>
<path d="M190 475 l0 -255 70 0 c130 0 170 34 170 141 0 71 -23 119 -58 119
-13 1 -10 6 10 21 48 36 59 137 19 183 -26 30 -76 46 -146 46 l-65 0 0 -255z
m144 173 c38 -53 7 -138 -49 -138 -25 0 -25 1 -25 80 l0 80 29 0 c20 0 35 -8
45 -22z m3 -210 c8 -6 13 -35 13 -74 0 -54 -3 -65 -22 -78 -12 -9 -33 -16 -45
-16 -22 0 -23 3 -23 88 0 49 3 92 7 96 9 9 53 -1 70 -16z"/>
<path d="M500 475 l0 -255 40 0 40 0 0 255 0 255 -40 0 -40 0 0 -255z"/>
<path d="M720 723 c0 -5 -20 -116 -45 -248 -25 -132 -45 -243 -45 -247 0 -5
18 -8 40 -8 35 0 40 3 40 23 0 12 3 32 6 45 6 20 12 23 53 20 46 -3 46 -3 51
-43 5 -38 7 -40 43 -43 29 -3 37 0 37 13 0 15 -72 414 -85 473 -5 19 -12 22
-50 22 -25 0 -45 -3 -45 -7z m65 -214 c20 -145 21 -139 -21 -139 -34 0 -36 2
-31 28 3 15 11 71 18 124 7 54 14 96 16 95 2 -2 10 -51 18 -108z"/>
<path d="M960 475 l0 -255 30 0 29 0 3 158 3 157 28 -78 c82 -227 86 -237 118
-237 l29 0 0 255 0 255 -30 0 -30 0 -2 -162 -3 -163 -59 163 c-57 158 -59 162
-87 162 l-29 0 0 -255z"/>
<path d="M1327 710 c-38 -30 -47 -77 -47 -245 0 -123 3 -156 18 -185 36 -73
130 -88 185 -29 22 24 27 39 27 79 l0 50 -35 0 c-33 0 -35 -2 -35 -36 0 -65
-30 -92 -64 -58 -13 13 -16 44 -16 180 0 171 6 204 40 204 25 0 40 -29 40 -74
0 -33 2 -36 30 -36 23 0 31 5 36 26 11 42 -3 97 -31 122 -35 30 -111 31 -148
2z"/>
<path d="M1625 708 c-11 -49 -85 -461 -85 -475 0 -10 10 -13 38 -11 35 3 37 5
42 43 5 40 5 40 51 43 41 3 47 0 53 -20 3 -13 6 -33 6 -45 0 -20 5 -23 40 -23
22 0 40 3 40 8 0 4 -20 115 -45 247 -25 132 -45 243 -45 248 0 4 -20 7 -45 7
-38 0 -45 -3 -50 -22z m84 -325 c1 -8 -13 -13 -35 -13 l-37 0 7 48 c3 26 11
83 18 127 l12 80 17 -115 c10 -63 18 -121 18 -127z"/>
</g>
</svg>
