<svg xmlns="http://www.w3.org/2000/svg" width="174" height="174" viewBox="0 0 174 174"><g style="isolation:isolate"><g id="Laag_2" data-name="Laag 2"><path d="M87,0h0A87.26,87.26,0,0,0,0,87H0a86.76,86.76,0,0,0,25.28,61.17c1.76-4.73,3.65-9.11,5.28-12.65,4.64-10.07,20-14,38.83-19.18A14.39,14.39,0,0,1,74,112.5v3.06h0v-6.48h0v-2.85A27.54,27.54,0,0,1,61.91,92.77l0,0c-.07-.13-1.56-3.24-2.37-10.47l.46.05h0A5.4,5.4,0,0,1,54.59,77V71.35a5.39,5.39,0,0,1,1.9-4.12,4.78,4.78,0,0,1,.84-.57h0A67.94,67.94,0,0,1,55.68,50.8c0-.11,0-.23,0-.35,0-.83.05-1.65.11-2.47,0-.13,0-.26,0-.38,0-.27.06-.53.08-.8.05-.49.1-1,.16-1.46s.13-1,.2-1.53q.16-1,.36-2c0-.14,0-.29.07-.43a36.4,36.4,0,0,1,2.08-6.66S64.29,17.32,87,17.34s28.23,17.4,28.23,17.4a36,36,0,0,1,2,6.51c0,.19.06.39.1.58s0,.18,0,.27c.22,1.11.4,2.25.53,3.41,0,.18,0,.37.06.56,0,.46.12.91.15,1.37.1,1.22.14,2.46.15,3.71,0,.48,0,1,0,1.44,0,.23,0,.46,0,.69a69.9,69.9,0,0,1-1.65,13.38h0a5.38,5.38,0,0,1,2.8,4.7V77a5.39,5.39,0,0,1-5.06,5.37l.15,0c-.81,7.23-2.3,10.34-2.37,10.47l0,0A27.57,27.57,0,0,1,100,106.22v7.37a13.19,13.19,0,0,1,3.21,2.35c19.51,5.42,35.5,9.26,40.26,19.58,1.63,3.54,3.52,7.92,5.28,12.65A86.76,86.76,0,0,0,174,87h0A87.26,87.26,0,0,0,87,0Z" style="fill:#dee2f3"/><polygon points="99.97 113.59 99.97 113.59 99.97 106.22 99.97 106.22 99.97 113.59" style="fill:#f2ae75"/><path d="M73.68,116.22,87,141.7l13.28-25.4-.39-.27v-.5L74,109.07v6.48h0V116Z" style="fill:#f2ae75"/><polygon points="74.04 106.22 74.04 109.07 74.04 109.07 74.04 106.22 74.04 106.22" style="fill:#f6ccb9;mix-blend-mode:multiply"/><path d="M99.89,113.54l.08,0v-7.37a27,27,0,0,1-12,3.55c-.34,0-.67,0-1,0h0c-.32,0-.65,0-1,0a27,27,0,0,1-12-3.55v2.85l25.85,6.46Z" style="fill:#f2ae75"/><path d="M99.89,113.54l.08,0v-7.37a27,27,0,0,1-12,3.55c-.34,0-.67,0-1,0h0c-.32,0-.65,0-1,0a27,27,0,0,1-12-3.55v2.85l25.85,6.46Z" style="fill:#f6ccb9;mix-blend-mode:multiply"/><path d="M65.82,164.13a3,3,0,0,0-.42,0h0A3,3,0,0,1,65.82,164.13Z" style="fill:#6ac1b9"/><path d="M100.09,152.2c.37-6.94,4-11.43,9.49-12-.37-4.34-2.12-18.77-9.3-23.93L87,141.7,73.68,116.22c-10.58,7.32-9.77,32.37-8.5,45.72a8.62,8.62,0,0,1,8.59,8.62,8.43,8.43,0,0,1-.34,2.37A86.88,86.88,0,0,0,87,174h0a86.41,86.41,0,0,0,20.28-2.41A27,27,0,0,1,100.09,152.2Z" style="fill:#6ac1b9"/><path d="M70.11,166.4a7.81,7.81,0,0,1,.53.75A7.81,7.81,0,0,0,70.11,166.4Z" style="fill:#6ac1b9"/><path d="M103.18,115.94c6.73,6.6,8.26,20.18,8.57,24.27,5.61.48,9.28,5,9.65,12a27.28,27.28,0,0,1-4.88,16.61,87.62,87.62,0,0,0,32.2-20.64c-1.76-4.73-3.65-9.11-5.28-12.65C138.68,125.2,122.69,121.36,103.18,115.94Z" style="fill:#6ac1b9"/><path d="M63,162.22c-1.22-12.59-2.05-35.54,6.37-45.88-18.85,5.22-34.19,9.11-38.83,19.18-1.63,3.54-3.52,7.92-5.28,12.65a87.58,87.58,0,0,0,31.51,20.38A8.61,8.61,0,0,1,63,162.22Z" style="fill:#6ac1b9"/><path d="M119.25,152.31c-.16-3-1.31-10-8.5-10s-8.35,7-8.51,10A24.48,24.48,0,0,0,109.67,171c1-.28,2.06-.57,3.07-.89A24.75,24.75,0,0,0,119.25,152.31Z" style="fill:#6ac1b9"/><path d="M70.93,167.66a6.39,6.39,0,0,1,.69,2.9,6.71,6.71,0,0,1-.32,2h0a6.71,6.71,0,0,0,.32-2A6.39,6.39,0,0,0,70.93,167.66Z" style="fill:#6ac1b9"/><path d="M87,51.7a13,13,0,0,1-3.44-.48A71.47,71.47,0,0,0,65.3,55.09a31.9,31.9,0,0,1-3.76,7,18.83,18.83,0,0,0-.47,3.36.54.54,0,0,1,.47.26L68.29,79.3h14A88.28,88.28,0,0,1,87,66.05Z" style="fill:#f2ae75"/><path d="M60.58,82.31a44.24,44.24,0,0,0,1.72,8.56,40.55,40.55,0,0,0,5.11-10.93L60.6,66.22h0l-3.27.45a4.78,4.78,0,0,0-.84.57,5.39,5.39,0,0,0-1.9,4.12V77A5.4,5.4,0,0,0,60,82.37h0A5.9,5.9,0,0,0,60.58,82.31Z" style="fill:#f2ae75"/><path d="M87,109.81c-.33,0-.66,0-1,0C86.34,109.8,86.67,109.81,87,109.81Z" style="fill:#f2ae75"/><path d="M87.13,109.81H87c.33,0,.66,0,1,0h0A8.38,8.38,0,0,1,87.13,109.81Z" style="fill:#f2ae75"/><path d="M108.8,54.56a82.86,82.86,0,0,0-18.3-3.35A13,13,0,0,1,87,51.7h0V66.05A88.28,88.28,0,0,0,82.32,79.3h23.39l6.75-13.62a.53.53,0,0,1,.46-.26,17.75,17.75,0,0,0-.47-3.36A26,26,0,0,1,108.8,54.56Z" style="fill:#f2ae75"/><path d="M108.8,54.56a82.86,82.86,0,0,0-18.3-3.35A13,13,0,0,1,87,51.7h0V66.05A88.28,88.28,0,0,0,82.32,79.3h23.39l6.75-13.62a.53.53,0,0,1,.46-.26,17.75,17.75,0,0,0-.47-3.36A26,26,0,0,1,108.8,54.56Z" style="fill:#f6ccb9;mix-blend-mode:multiply;opacity:0.8"/><path d="M113.4,66.22l-6.81,13.72a40.55,40.55,0,0,0,5.11,10.93,44.24,44.24,0,0,0,1.72-8.56,5.9,5.9,0,0,0,.59.06c.12,0,.23,0,.34,0A5.39,5.39,0,0,0,119.41,77V71.35a5.38,5.38,0,0,0-2.8-4.7l-3.21-.44Z" style="fill:#f2ae75"/><path d="M113.4,66.22l-6.81,13.72a40.55,40.55,0,0,0,5.11,10.93,44.24,44.24,0,0,0,1.72-8.56,5.9,5.9,0,0,0,.59.06c.12,0,.23,0,.34,0A5.39,5.39,0,0,0,119.41,77V71.35a5.38,5.38,0,0,0-2.8-4.7l-3.21-.44Z" style="fill:#f6ccb9;mix-blend-mode:multiply;opacity:0.8"/><path d="M87.13,109.81a8.38,8.38,0,0,0,.86,0C87.7,109.79,87.42,109.81,87.13,109.81Z" style="fill:#f2ae75"/><path d="M87.13,109.81a8.38,8.38,0,0,0,.86,0C87.7,109.79,87.42,109.81,87.13,109.81Z" style="fill:#f6ccb9;mix-blend-mode:multiply;opacity:0.8"/><path d="M111.24,55.34c-.77-.26-1.59-.52-2.44-.78a26,26,0,0,0,3.65,7.5,17.75,17.75,0,0,1,.47,3.36.46.46,0,0,1,.28.06.53.53,0,0,1,.2.73l3.21.44h0a69.9,69.9,0,0,0,1.65-13.38c0,1.83-.19,3.7-.41,5.58C115.78,57.89,114.9,56.6,111.24,55.34Z" style="fill:#3d2417"/><path d="M117.37,41.83c0,.09,0,.18,0,.27C117.4,42,117.39,41.92,117.37,41.83Z" style="fill:#3d2417"/><path d="M118.31,51.15c0,.48,0,1,0,1.44C118.31,52.11,118.32,51.63,118.31,51.15Z" style="fill:#3d2417"/><path d="M55.9,46.8c.05-.49.1-1,.16-1.46C56,45.82,56,46.31,55.9,46.8Z" style="fill:#3d2417"/><path d="M118,45.51a5,5,0,0,1,.06.56C118,45.88,118,45.69,118,45.51Z" style="fill:#3d2417"/><path d="M56.26,43.81c.11-.66.22-1.33.36-2Q56.43,42.8,56.26,43.81Z" style="fill:#3d2417"/><path d="M55.69,50.45c0-.83.06-1.65.11-2.47C55.74,48.8,55.71,49.62,55.69,50.45Z" style="fill:#3d2417"/><path d="M60.8,65.48a.45.45,0,0,1,.27-.06,18.83,18.83,0,0,1,.47-3.36,31.9,31.9,0,0,0,3.76-7c-1,.35-1.94.7-2.82,1.06-3.54,1.44-4.27,2.91-6.22,4a63.34,63.34,0,0,1-.58-9.33,67.94,67.94,0,0,0,1.65,15.86h0l3.27-.45A.53.53,0,0,1,60.8,65.48Z" style="fill:#3d2417"/><path d="M86,109.77c.33,0,.66,0,1,0h.14c.29,0,.57,0,.86,0h0a27,27,0,0,0,12-3.55h0a27.57,27.57,0,0,0,12.12-13.45l0,0c.07-.13,1.56-3.24,2.37-10.47l-.15,0c-.11,0-.22,0-.34,0a5.9,5.9,0,0,1-.59-.06,44.24,44.24,0,0,1-1.72,8.56,40.55,40.55,0,0,1-5.11-10.93l6.81-13.72h0a.53.53,0,0,0-.2-.73.46.46,0,0,0-.28-.06.53.53,0,0,0-.46.26L105.71,79.3H68.29L61.54,65.68a.54.54,0,0,0-.47-.26.45.45,0,0,0-.27.06.53.53,0,0,0-.2.73h0l6.81,13.72A40.55,40.55,0,0,1,62.3,90.87a44.24,44.24,0,0,1-1.72-8.56,5.9,5.9,0,0,1-.59.06h0l-.46-.05c.81,7.23,2.3,10.34,2.37,10.47l0,0A27.54,27.54,0,0,0,74,106.22h0A27,27,0,0,0,86,109.77Z" style="fill:#ebebeb"/><path d="M62.48,56.15c.88-.36,1.82-.71,2.82-1.06a71.47,71.47,0,0,1,18.26-3.87,13,13,0,0,1-9.07-9.16A77.49,77.49,0,0,0,55.82,47.6c0,.12,0,.25,0,.38,0,.82-.09,1.64-.11,2.47,0,.12,0,.24,0,.35a63.34,63.34,0,0,0,.58,9.33C58.21,59.06,58.94,57.59,62.48,56.15Z" style="fill:#6ac1b9"/><path d="M99.54,42a13,13,0,0,1-9,9.18,82.86,82.86,0,0,1,18.3,3.35c.85.26,1.67.52,2.44.78,3.66,1.26,4.54,2.55,6.65,3.52.22-1.88.36-3.75.41-5.58,0-.23,0-.46,0-.69,0-.49,0-1,0-1.44,0-1.25,0-2.49-.15-3.71A81.5,81.5,0,0,0,99.54,42Z" style="fill:#6ac1b9"/><path d="M74.23,36.65a13,13,0,0,1,25.56,0,85.65,85.65,0,0,1,17.48,4.65,36,36,0,0,0-2-6.51S109.7,17.32,87,17.34s-28.23,17.4-28.23,17.4a36.4,36.4,0,0,0-2.08,6.66A84.26,84.26,0,0,1,74.23,36.65Z" style="fill:#6ac1b9"/><path d="M74.49,42.06a12.54,12.54,0,0,1-.26-5.41A84.26,84.26,0,0,0,56.69,41.4c0,.14,0,.29-.07.43-.14.65-.25,1.32-.36,2-.07.51-.14,1-.2,1.53s-.11,1-.16,1.46c0,.27-.06.53-.08.8A77.49,77.49,0,0,1,74.49,42.06Z" style="fill:#d6d7d7"/><path d="M99.79,36.6a13.71,13.71,0,0,1,.19,2.13,13.2,13.2,0,0,1-.44,3.3,81.5,81.5,0,0,1,18.62,5.41c0-.46-.1-.91-.15-1.37a5,5,0,0,0-.06-.56c-.13-1.16-.31-2.3-.53-3.41,0-.09,0-.18,0-.27s-.06-.39-.1-.58A85.65,85.65,0,0,0,99.79,36.6Z" style="fill:#d6d7d7"/><path d="M87,49.54a10.81,10.81,0,1,0-10.8-10.81A10.81,10.81,0,0,0,87,49.54ZM82.39,38.73A4.62,4.62,0,1,1,87,43.36,4.62,4.62,0,0,1,82.39,38.73Z" style="fill:#d6d7d7"/><path d="M87,51.7A13,13,0,0,0,99.54,42a13.2,13.2,0,0,0,.44-3.3,13.71,13.71,0,0,0-.19-2.13A12.92,12.92,0,1,0,87,51.7Zm-10.8-13A10.81,10.81,0,1,1,87,49.54,10.8,10.8,0,0,1,76.21,38.73Z" style="fill:#a7a9ab"/><circle cx="87.01" cy="38.73" r="4.62" transform="translate(17.93 104.3) rotate(-67.5)" style="fill:#f1f2f2"/><path d="M99.89,113.54V116l.39.27c7.18,5.16,8.93,19.59,9.3,23.93a11.17,11.17,0,0,1,1.17-.06c.34,0,.67,0,1,0-.31-4.09-1.84-17.67-8.57-24.27a13.19,13.19,0,0,0-3.21-2.35h0Z" style="fill:#a7a9ab"/><path d="M65.4,164.11l-.24,0h0l.24,0Z" style="fill:#a7a9ab"/><path d="M63,162.22a8.43,8.43,0,0,1,2.14-.28h0c-1.27-13.35-2.08-38.4,8.5-45.72L74,116V112.5a14.39,14.39,0,0,0-4.65,3.84C61,126.68,61.8,149.63,63,162.22Z" style="fill:#a7a9ab"/><path d="M121.4,152.2c-.37-7-4-11.51-9.65-12-.33,0-.66,0-1,0a11.17,11.17,0,0,0-1.17.06c-5.52.54-9.12,5-9.49,12a27,27,0,0,0,7.19,19.39c.8-.19,1.6-.4,2.39-.61a24.48,24.48,0,0,1-7.43-18.67c.16-3,1.31-10,8.51-10s8.34,7,8.5,10a24.75,24.75,0,0,1-6.51,17.78c1.27-.4,2.53-.83,3.78-1.28A27.28,27.28,0,0,0,121.4,152.2Z" style="fill:#a7a9ab"/><path d="M70.93,167.66c-.09-.17-.18-.34-.29-.51a7.81,7.81,0,0,0-.53-.75,7.31,7.31,0,0,0-.84-.83,6.43,6.43,0,0,0-3.45-1.44,3,3,0,0,0-.42,0l-.24,0a6.47,6.47,0,0,0-6.34,5.19q.9.32,1.8.6a4.6,4.6,0,1,1,8.83,2.33l1.85.36a6.71,6.71,0,0,0,.32-2A6.39,6.39,0,0,0,70.93,167.66Z" style="fill:#e7e8e9"/><path d="M65.18,161.94h0a8.43,8.43,0,0,0-2.14.28,8.61,8.61,0,0,0-6.23,6.33c.67.26,1.35.5,2,.73a6.47,6.47,0,0,1,6.34-5.19h0l.24,0a3,3,0,0,1,.42,0,6.43,6.43,0,0,1,3.45,1.44,7.31,7.31,0,0,1,.84.83,7.81,7.81,0,0,1,.53.75c.11.17.2.34.29.51a6.39,6.39,0,0,1,.69,2.9,6.71,6.71,0,0,1-.32,2l2.13.36a8.43,8.43,0,0,0,.34-2.37A8.62,8.62,0,0,0,65.18,161.94Z" style="fill:#a7a9ab"/><path d="M65.16,166a4.59,4.59,0,0,0-4.54,3.93,84.21,84.21,0,0,0,8.83,2.33A4.58,4.58,0,0,0,65.16,166Z" style="fill:#a7a9ab"/><path d="M71.15,65.65h0a7.37,7.37,0,0,1,9.46,0h0" style="fill:none;stroke:#000;stroke-linecap:round;stroke-miterlimit:10;stroke-width:2px"/><path d="M92.86,65.65h0a6.51,6.51,0,0,1,8.81,0h0" style="fill:none;stroke:#000;stroke-linecap:round;stroke-miterlimit:10;stroke-width:2px"/></g></g></svg>